<?xml version="1.0" encoding="utf-8"?>
<!-- Generator: Adobe Illustrator 27.0.1, SVG Export Plug-In . SVG Version: 6.00 Build 0)  -->
<svg version="1.1" id="Layer_1" xmlns="http://www.w3.org/2000/svg" xmlns:xlink="http://www.w3.org/1999/xlink" x="0px" y="0px"
	 viewBox="0 0 41.4 52.8" style="enable-background:new 0 0 41.4 52.8;" xml:space="preserve">
<style type="text/css">
	.st0{fill:#D2B297;}
	.st1{fill:#D2B296;}
	.st2{fill:#D3B398;}
</style>
<path class="st0" d="M9.3,46.3c-2.4-0.2-4.6-1-5-3.4c-0.5-2.3,1.6-3.3,3.5-4.1c2.9-1.2,5.6-0.2,8.2,0.9c1.1,0.4,1.2,1.2,0.5,2.1
	C14.8,44.3,12.5,46,9.3,46.3L9.3,46.3z"/>
<path class="st1" d="M37.7,20.9c5.1-4,4.9-9.7-0.2-13.6c-0.7-0.5-1.3-1-1.7-1.9c-2.6-5.8-8.7-7.2-13.4-3c-1.4,1.3-2.1,1.2-3.5,0
	C14.3-1.7,8.2-0.3,5.7,5.3C5.2,6.2,4.7,6.9,3.9,7.5c-4.9,3.3-5.2,9.4-0.5,13.1c1.2,0.9,1.5,1.3,1,3c-2.2,7.1,2.4,12.8,9.4,12
	c1.7-0.2,3.1-1.1,4.5-2c1.1-0.7,1.6-0.4,1.7,0.8c0.1,5.4,0.5,10.9-4.1,15c-0.9,0.8-1.6,1.7-0.5,2.8c1.1,1.1,2,0.2,2.8-0.5
	c2.3-1.8,3.4-4.5,4.7-7.7l0,0v0c2,2.4,3.8,4.1,6.6,4.2c2,0,4.2,0.2,4.9-2.3c0.6-2.2-1-3.5-2.5-4.6c-2.1-1.6-4.5-2.2-7.1-2.1
	c-0.8,0-1.3-0.1-1.4-0.9c-0.1-1.4-0.6-3-0.1-4.2c0.3-0.8,1.5,0.3,2.2,0.6c3.4,1.4,6.7,1.6,9.5-1.1c2.8-2.7,3.7-5.9,2.5-9.6
	C36.9,22.9,36.2,22.1,37.7,20.9z M31.9,22.1c2.5,2.5,3,5.2,1.3,7.7c-1.7,2.5-5.3,3.8-7.8,1.9c-3.5-2.7-6-2.9-9.5,0.1
	c-2.2,1.9-6.1,0.5-7.7-1.7c-1.8-2.5-1.3-5.6,1.1-8c0.7-0.7,1.5-1.3,2.2-2c-2.3-1.2-4.7-2.5-4.7-5.5c0-3.9,4-6.4,7.8-5
	c1.8,0.6,3.3,1.8,4.6,3.2c0.9,1.1,1.8,1.1,2.7,0c0.5-0.6,1.1-1.1,1.7-1.6c2.3-1.7,4.8-2.8,7.7-1.5c2,0.9,3,2.8,3,4.8
	c0.1,3-1.9,4.7-4.8,5.5v0h0C30.5,20.8,31.2,21.4,31.9,22.1z"/>
<path class="st2" d="M20.7,22.4c-1.7-0.1-3.2-0.9-3.2-2.6s1.5-2.6,3.2-2.6c1.6,0,2.9,0.9,3,2.4C23.8,21.4,22.3,22.1,20.7,22.4
	L20.7,22.4L20.7,22.4z"/>
</svg>
