<?xml version="1.0" encoding="UTF-8"?>
<svg id="Layer_1" data-name="Layer 1" xmlns="http://www.w3.org/2000/svg" viewBox="0 0 397.79 24.49">
  <defs>
    <style>
      .cls-1 {
        fill: #8acda7;
      }

      .cls-2 {
        fill: #8ccea8;
      }

      .cls-3 {
        fill: #8bcda7;
      }
    </style>
  </defs>
  <path class="cls-1" d="M95.21,2.1c.56,.14,1.14,1.33,2.11,3.76,.84,2.12,1.78,4.2,2.67,6.3,.56,1.82,1.12,3.64,1.75,5.68-3.62-.62-7.03-1.2-10.44-1.78-1.99-.53-3.97-1.06-6.17-1.64,.42-.71,1.09-1.82,1.95-3.15,3.49-5.39,6.24-9.65,8.13-9.17Z"/>
  <path class="cls-1" d="M27.58,12.2c3.29-4.07,6.58-8.13,9.87-12.2,1.35,2.71,2.49,4.79,3.29,6.2,1.03,1.8,1.67,3.8,2.55,5.68,.72,1.55,.92,2.4-1.32,2.26-4.55-.29-9.11-.49-13.67-.67-1.09-.04-.99-.57-.72-1.27Z"/>
  <path class="cls-1" d="M179.5,1.25c3.57,2.61,7.01,5.17,10.5,7.66,1.42,1.02,1.42,1.75-.17,2.57-2.45,1.27-4.85,2.64-7.26,3.96-1.68,.76-3.36,1.51-5.32,2.4,.26-2.17,.53-4.37,.82-6.58,.45-3.4,.93-6.73,1.43-10.01Z"/>
  <path class="cls-1" d="M121.72,1.06c3.78,2.98,7.21,5.71,10.67,8.41,1.49,1.17,1.12,1.75-.53,2.32-4.39,1.51-8.74,3.13-13.49,4.85,.76-5.37,2.04-10.29,3.35-15.58Z"/>
  <path class="cls-1" d="M59.76,1.65c2.51,1.67,5.37,2.6,8.11,3.79,.84-.16,1.52,.04,1.98,.79,.86,1.14,.05,1.71-.8,2.29-1.33,.92-2.64,1.87-3.96,2.8-2.06,1.23-4.12,2.46-6.4,3.82-.32-4.23-.57-8.2-.94-12.15-.17-1.83,.85-1.61,2.01-1.35Z"/>
  <path class="cls-2" d="M153.02,5.56c1.65,.75,3.3,1.5,5.12,2.33-1.13,1.25-2.13,2.36-3.14,3.47-1.4,1.21-2.8,2.42-4.64,4.01-.92-3.99-1.74-7.59-2.65-11.53,2.02,.65,3.67,1.19,5.31,1.72Z"/>
  <path class="cls-1" d="M223.28,13.06c-.13,1.04-.88,.93-1.51,1.06-3.91,.76-7.83,1.49-11.72,2.33-1.67,.36-1.97-.03-1.47-1.6,1.23-3.83,2.32-7.71,3.48-11.56,.32-1.08,.78-2.02,1.97-.75,2.92,3.14,5.79,6.32,8.66,9.5,.28,.31,.44,.74,.6,1.03Z"/>
  <path class="cls-1" d="M240.88,3.72c3.95,1.63,7.9,3.26,12.54,5.17-3.81,2.04-7.05,3.82-10.34,5.52-.67,.35-1.2,.43-1.56,.21-.51-.31-.51-1.14-.52-1.49-.02-1.74-.08-5.07-.12-9.41Z"/>
  <path class="cls-1" d="M275.66,2.28c1.48-2.14,2.52-2.39,3.58,.43,1.19,3.14,2.72,6.18,4.27,9.17,1.06,2.05,.28,2.34-1.65,2.28-4.73-.15-9.41-1.01-14.65-.64,1.28-1.87,2.25-3.27,3.21-4.67,1.75-2.19,3.5-4.38,5.24-6.58Z"/>
  <path class="cls-1" d="M297.86,2.97c.34-.5-.29-2.04,1.03-1.41,4.02,1.91,8.53,2.9,11.91,6.03-3.89,2.49-7.77,4.99-12.04,7.73-.2-4.41-.17-8.41-.89-12.35Z"/>
  <path class="cls-1" d="M339.6,18.04c-5.35-1.14-10.7-2.28-16.05-3.43,.62-1,6.78-10.78,8.93-12.65,.27-.24,.93-.81,1.68-.7,.82,.12,1.32,.98,1.52,1.31,1.5,2.57,3.7,14.27,3.92,15.46Z"/>
  <path class="cls-1" d="M373.04,9.66c.38,.44,.52,.85,.51,1.21-.09,2.79-9.2,4.7-15.17,5.69,1.14-5.21,2.23-10.15,3.39-15.47,3.94,3,7.6,5.78,11.26,8.57Z"/>
  <path class="cls-3" d="M387.84,4.93c1.86-1.07,9.31,1.85,9.95,3.9-1.77,1.62-3.61,3.18-5.28,4.9-1.45,1.49-2.18,1.51-2.64-.66-.59-2.73-1.35-5.42-2.03-8.13Z"/>
  <path class="cls-1" d="M1.41,4.1c2.45,.92,4.91,1.83,7.36,2.75,1.26,.61,2.53,1.21,4.35,2.09-4.1,2.22-7.73,4.19-11.49,6.23C.9,9.99,.35,6.37,.07,5.25c-.04-.18-.18-.72,.09-1.03,.35-.39,1.14-.15,1.24-.12Z"/>
</svg>