<?xml version="1.0" encoding="utf-8"?>
<!-- Generator: Adobe Illustrator 27.0.0, SVG Export Plug-In . SVG Version: 6.00 Build 0)  -->
<svg version="1.1" id="Layer_1" xmlns="http://www.w3.org/2000/svg" xmlns:xlink="http://www.w3.org/1999/xlink" x="0px" y="0px"
	 viewBox="0 0 397.8 24.5" style="enable-background:new 0 0 397.8 24.5;" xml:space="preserve">
<style type="text/css">
	.st0{fill:#E1D4CB;}
</style>
<path class="st0" d="M95.2,2.1c0.6,0.1,1.1,1.3,2.1,3.8c0.8,2.1,1.8,4.2,2.7,6.3c0.6,1.8,1.1,3.6,1.8,5.7c-3.6-0.6-7-1.2-10.4-1.8
	c-2-0.5-4-1.1-6.2-1.6c0.4-0.7,1.1-1.8,1.9-3.2C90.6,5.9,93.3,1.6,95.2,2.1z"/>
<path class="st0" d="M27.6,12.2c3.3-4.1,6.6-8.1,9.9-12.2c1.3,2.7,2.5,4.8,3.3,6.2c1,1.8,1.7,3.8,2.5,5.7c0.7,1.6,0.9,2.4-1.3,2.3
	c-4.5-0.3-9.1-0.5-13.7-0.7C27.2,13.4,27.3,12.9,27.6,12.2z"/>
<path class="st0" d="M179.5,1.2c3.6,2.6,7,5.2,10.5,7.7c1.4,1,1.4,1.8-0.2,2.6c-2.4,1.3-4.9,2.6-7.3,4c-1.7,0.8-3.4,1.5-5.3,2.4
	c0.3-2.2,0.5-4.4,0.8-6.6C178.5,7.9,179,4.5,179.5,1.2z"/>
<path class="st0" d="M121.7,1.1c3.8,3,7.2,5.7,10.7,8.4c1.5,1.2,1.1,1.8-0.5,2.3c-4.4,1.5-8.7,3.1-13.5,4.9
	C119.1,11.3,120.4,6.3,121.7,1.1z"/>
<path class="st0" d="M59.8,1.6c2.5,1.7,5.4,2.6,8.1,3.8c0.8-0.2,1.5,0,2,0.8c0.9,1.1,0.1,1.7-0.8,2.3c-1.3,0.9-2.6,1.9-4,2.8
	c-2.1,1.2-4.1,2.5-6.4,3.8c-0.3-4.2-0.6-8.2-0.9-12.1C57.6,1.2,58.6,1.4,59.8,1.6L59.8,1.6z"/>
<path class="st0" d="M153,5.6c1.6,0.8,3.3,1.5,5.1,2.3c-1.1,1.2-2.1,2.4-3.1,3.5c-1.4,1.2-2.8,2.4-4.6,4c-0.9-4-1.7-7.6-2.6-11.5
	C149.7,4.5,151.4,5,153,5.6z"/>
<path class="st0" d="M223.3,13.1c-0.1,1-0.9,0.9-1.5,1.1c-3.9,0.8-7.8,1.5-11.7,2.3c-1.7,0.4-2,0-1.5-1.6c1.2-3.8,2.3-7.7,3.5-11.6
	c0.3-1.1,0.8-2,2-0.8c2.9,3.1,5.8,6.3,8.7,9.5C223,12.4,223.1,12.8,223.3,13.1L223.3,13.1z"/>
<path class="st0" d="M240.9,3.7c3.9,1.6,7.9,3.3,12.5,5.2c-3.8,2-7.1,3.8-10.3,5.5c-0.7,0.4-1.2,0.4-1.6,0.2
	c-0.5-0.3-0.5-1.1-0.5-1.5C241,11.4,240.9,8.1,240.9,3.7z"/>
<path class="st0" d="M275.7,2.3c1.5-2.1,2.5-2.4,3.6,0.4c1.2,3.1,2.7,6.2,4.3,9.2c1.1,2.1,0.3,2.3-1.6,2.3c-4.7-0.1-9.4-1-14.6-0.6
	c1.3-1.9,2.2-3.3,3.2-4.7C272.2,6.7,273.9,4.5,275.7,2.3L275.7,2.3z"/>
<path class="st0" d="M297.9,3c0.3-0.5-0.3-2,1-1.4c4,1.9,8.5,2.9,11.9,6c-3.9,2.5-7.8,5-12,7.7C298.6,10.9,298.6,6.9,297.9,3
	L297.9,3z"/>
<path class="st0" d="M339.6,18c-5.4-1.1-10.7-2.3-16-3.4c0.6-1,6.8-10.8,8.9-12.6c0.3-0.2,0.9-0.8,1.7-0.7c0.8,0.1,1.3,1,1.5,1.3
	C337.2,5.1,339.4,16.8,339.6,18L339.6,18z"/>
<path class="st0" d="M373,9.7c0.4,0.4,0.5,0.9,0.5,1.2c-0.1,2.8-9.2,4.7-15.2,5.7c1.1-5.2,2.2-10.1,3.4-15.5
	C365.7,4.1,369.4,6.9,373,9.7L373,9.7z"/>
<path class="st0" d="M387.8,4.9c1.9-1.1,9.3,1.8,10,3.9c-1.8,1.6-3.6,3.2-5.3,4.9c-1.5,1.5-2.2,1.5-2.6-0.7
	C389.3,10.3,388.5,7.6,387.8,4.9L387.8,4.9z"/>
<path class="st0" d="M1.4,4.1C3.9,5,6.3,5.9,8.8,6.8c1.3,0.6,2.5,1.2,4.4,2.1C9,11.2,5.4,13.1,1.6,15.2C0.9,10,0.3,6.4,0.1,5.2
	c0-0.2-0.2-0.7,0.1-1C0.5,3.8,1.3,4.1,1.4,4.1L1.4,4.1z"/>
</svg>
