<?xml version="1.0" encoding="UTF-8"?>
<svg id="Layer_1" data-name="Layer 1" xmlns="http://www.w3.org/2000/svg" viewBox="0 0 41.39 52.85">
  <defs>
    <style>
      .cls-1 {
        fill: #f7f5ef;
      }

      .cls-2 {
        fill: #d2b297;
      }

      .cls-3 {
        fill: #d2b296;
      }

      .cls-4 {
        fill: #d3b398;
      }
    </style>
  </defs>
  <path class="cls-3" d="M22.65,44.15c-1.29,3.15-2.31,5.84-4.65,7.68-.88,.69-1.77,1.61-2.85,.5-1.05-1.08-.32-2.04,.55-2.82,4.63-4.12,4.29-9.6,4.14-15.04-.03-1.22-.53-1.56-1.67-.82-1.38,.9-2.77,1.79-4.48,1.99-7,.82-11.62-4.93-9.37-12.03,.54-1.69,.2-2.09-1.01-3.04C-1.33,16.95-1.04,10.82,3.86,7.5c.88-.6,1.37-1.26,1.8-2.2C8.19-.29,14.33-1.66,18.89,2.42c1.36,1.22,2.05,1.27,3.46,0,4.69-4.21,10.84-2.78,13.41,3.01,.4,.89,1,1.35,1.71,1.88,5.11,3.87,5.28,9.61,.22,13.6-1.47,1.16-.78,1.97-.42,3.08,1.25,3.74,.34,6.99-2.47,9.64-2.85,2.69-6.11,2.54-9.51,1.13-.74-.31-1.91-1.45-2.21-.61-.44,1.21,.02,2.76,.13,4.16,.07,.85,.57,.96,1.37,.93,2.59-.11,5.03,.56,7.11,2.12,1.49,1.12,3.08,2.48,2.45,4.64-.72,2.45-2.92,2.31-4.93,2.28-2.78-.04-4.62-1.74-6.57-4.16v.02Z"/>
  <path class="cls-2" d="M9.32,46.3c-2.36-.18-4.57-1.04-5.04-3.42-.46-2.3,1.63-3.3,3.52-4.07,2.9-1.18,5.55-.15,8.2,.9,1.08,.43,1.18,1.16,.55,2.06-1.76,2.54-4.04,4.26-7.22,4.53h-.01Z"/>
  <path class="cls-1" d="M29.56,19.95c.92,.82,1.68,1.45,2.38,2.14,2.54,2.52,2.99,5.21,1.31,7.69-1.68,2.47-5.31,3.81-7.85,1.85-3.54-2.72-6.04-2.87-9.51,.13-2.16,1.87-6.08,.49-7.65-1.7-1.77-2.46-1.35-5.57,1.11-8.04,.69-.69,1.45-1.31,2.23-2.02-2.31-1.24-4.7-2.47-4.67-5.49,.03-3.9,4-6.39,7.81-5.05,1.81,.64,3.3,1.75,4.55,3.19,.93,1.08,1.77,1.11,2.71,0,.5-.59,1.06-1.14,1.67-1.6,2.31-1.72,4.8-2.75,7.67-1.46,2.02,.91,2.96,2.75,3.03,4.78,.1,3.05-1.89,4.71-4.78,5.55v.03Z"/>
  <path class="cls-4" d="M20.7,22.38c-1.72-.15-3.21-.87-3.21-2.65s1.45-2.62,3.16-2.62c1.59,0,2.92,.87,3.03,2.43,.12,1.83-1.35,2.56-2.98,2.83h0Z"/>
</svg>